# AST/ASF file generated using VICON BodyLanguage
# -----------------------------------------------
:version 1.10
:name VICON
:units
  mass 1.0
  length 0.45
  angle deg
:documentation
   .ast/.asf automatically generated from VICON data using
   VICON BodyBuilder and BodyLanguage model FoxedUp or BRILLIANT.MOD
:root
   order TX TY TZ RX RY RZ
   axis XYZ
   position 0 0 0  
   orientation 0 0 0 
:bonedata
  begin
     id 1 
     name lhipjoint
     direction 0.707368 -0.647095 0.284426 
     length 2.60678 
     axis 0 0 0  XYZ
  end
  begin
     id 2 
     name lfemur
     direction 0.34202 -0.939693 0  
     length 6.63812  
     axis 0 0 20  XYZ
    dof rx ry rz
    limits (-160.0 20.0)
           (-70.0 70.0)
           (-60.0 70.0)
  end
  begin
     id 3 
     name ltibia
     direction 0.34202 -0.939693 0   
     length 7.51178   
     axis 0 0 20   XYZ
    dof rx
    limits (-10.0 170.0)
  end
  begin
     id 4 
     name lfoot
     direction 0.121251 -0.333133 0.935051   
     length 1.83716   
     axis -90 7.62852e-016 20   XYZ
    dof rx rz
    limits (-45.0 90.0)
           (-70.0 20.0)
  end
  begin
     id 5 
     name ltoes
     direction 1.53611e-011 -4.21962e-011 1   
     length 0.916133   
     axis -90 7.62852e-016 20   XYZ
    dof rx
    limits (-90.0 20.0)
  end
  begin
     id 6 
     name rhipjoint
     direction -0.692419 -0.660507 0.290321   
     length 2.55385  
     axis 0 0 0  XYZ 
  end
  begin
     id 7 
     name rfemur
     direction -0.34202 -0.939693 0   
     length 7.29079   
     axis 0 0 -20   XYZ
    dof rx ry rz
    limits (-160.0 20.0)
           (-70.0 70.0)
           (-70.0 60.0)
  end
  begin
     id 8 
     name rtibia
     direction -0.34202 -0.939693 0   
     length 7.47143   
     axis 0 0 -20   XYZ
    dof rx
    limits (-10.0 170.0)
 end
 begin
     id 9 
     name rfoot
     direction -0.119907 -0.329441 0.936532   
     length 1.79439  
     axis -90 -7.62852e-016 -20   XYZ
    dof rx rz
    limits (-45.0 90.0)
           (-20.0 70.0)
  end
  begin
     id 10 
     name rtoes
     direction -1.53571e-011 -4.21961e-011 1   
     length 0.896039   
     axis -90 -7.62852e-016 -20   XYZ
    dof rx
    limits (-90.0 20.0)
  end
  begin
     id 11 
     name lowerback
     direction 0.0367721 0.992912 -0.113016   
     length 1.73542   
     axis 0 0 0   XYZ
    dof rx ry rz
    limits (-20.0 45.0)
           (-30.0 30.0)
           (-30.0 30.0)
  end
  begin
     id 12 
     name upperback
     direction -0.000314626 0.990678 0.136227   
     length 1.7514   
     axis 0 0 0   XYZ
    dof rx ry rz
    limits (-20.0 45.0)
           (-30.0 30.0)
           (-30.0 30.0)
  end
  begin
     id 13 
     name thorax
     direction -0.0226159 0.981151 0.191917   
     length 1.71471   
     axis 0 0 0   XYZ
    dof rx ry rz
    limits (-20.0 45.0)
           (-30.0 30.0)
           (-30.0 30.0)
  end
  begin
     id 14 
     name lowerneck
     direction 0.0219333 0.998071 0.0580739   
     length 1.65882   
     axis 0 0 0   XYZ
    dof rx ry rz
    limits (-20.0 45.0)
           (-30.0 30.0)
           (-30.0 30.0)
  end
  begin
     id 15 
     name upperneck
     direction 0.0384529 0.980058 -0.194957   
     length 1.6612   
     axis 0 0 0   XYZ
    dof rx ry rz
    limits (-20.0 45.0)
           (-30.0 30.0)
           (-30.0 30.0)
  end
  begin
     id 16
     name head
     direction 0.00592123 0.997421 -0.0715234  
     length 1.68077  
     axis 0 0 0   XYZ
    dof rx ry rz
    limits (-20.0 45.0)
           (-30.0 30.0)
           (-30.0 30.0)
  end
  begin
     id 17 
     name lclavicle
     direction 0.904803 0.417826 0.0821728  
     length 3.42227  
     axis 0 0 0   XYZ
    dof ry rz
    limits (-20.0 10.0)
           (0.0 20.0)
  end
  begin
     id 18 
     name lhumerus
     direction 1 -4.48965e-011 -2.68786e-027   
     length 5.11878   
     axis -180 -30 -90   XYZ
    dof rx ry rz
    limits (-60.0 90.0)
           (-90.0 90.0)
           (-90.0 90.0)
  end
  begin
     id 19
     name lradius
     direction 1 -4.48965e-011 2.61168e-028   
     length 3.59971   
     axis -180 -30 -90   XYZ
    dof rx
    limits (-10.0 170.0)
  end
  begin
     id 20
     name lwrist
     direction 1 -4.48965e-011 1.58672e-027   
     length 1.79985   
     axis -1.65735e-015 90 90   XYZ
    dof ry
    limits (-180.0 0.0)
 end
  begin
     id 21 
     name lhand
     direction 1 -4.48942e-011 3.17344e-027   
     length 0.62877   
     axis -2.02492e-015 90 90   XYZ
    dof rx rz
    limits (-90.0 90.0)
           (-45.0 45.0)
  end
  begin
     id 22 
     name lfingers
     direction 1 -4.49011e-011 6.34687e-027   
     length 0.506931   
     axis -4.04985e-015 90 90   XYZ
    dof rx
    limits (0.0 90.0)
  end
  begin
     id 23
     name lthumb
     direction 0.707107 -6.34982e-011 0.707107   
     length 0.727854   
     axis -90 45 2.85299e-015   XYZ
    dof rx rz
    limits (-45.0 45.0)
           (-45.0 45.0)
  end
  begin
     id 24 
     name rclavicle
     direction -0.945647 0.32488 0.0143075   
     length 3.52737  
     axis 0 0 0   XYZ 
    dof ry rz
    limits (-10.0 20.0)
           (-20.0 0.0)
  end
  begin
     id 25 
     name rhumerus
     direction -1 -4.48962e-011 1.92182e-027  
     length 5.4902   
     axis -180 30 90   XYZ
    dof rx ry rz
    limits (-90.0 60.0)
           (-90.0 90.0)
           (-90.0 90.0)
  end
  begin
     id 26 
     name rradius
     direction -1 -4.48967e-011 -5.97193e-028   
     length 3.20659   
     axis -180 30 90   XYZ
    dof rx
    limits (-10.0 170.0)
  end
  begin
     id 27 
     name rwrist
     direction -1 -4.48964e-011 1.58672e-027   
     length 1.6033   
     axis -1.65735e-015 -90 -90   XYZ
    dof ry
    limits (-180.0 0.0)
  end
  begin
     id 28
     name rhand
     direction -1 -4.49006e-011 3.17344e-027   
     length 0.691885   
     axis -2.02492e-015 -90 -90   XYZ
    dof rx rz
    limits (-90.0 90.0)
           (-45.0 45.0)
  end
  begin
     id 29
     name rfingers
     direction -1 -4.48908e-011 6.34687e-027   
     length 0.557815   
     axis -4.04985e-015 -90 -90   XYZ
    dof rx
    limits (0.0 90.0)
  end
  begin
     id 30
     name rthumb
     direction -0.707107 -6.34999e-011 0.707107   
     length 0.800915   
     axis -90 -45 -2.85299e-015   XYZ
    dof rx rz
    limits (-45.0 45.0)
           (-45.0 45.0)
  end
:hierarchy
  begin
    root lhipjoint rhipjoint lowerback
    lhipjoint lfemur
    lfemur ltibia
    ltibia lfoot
    lfoot ltoes
    rhipjoint rfemur
    rfemur rtibia
    rtibia rfoot
    rfoot rtoes
    lowerback upperback
    upperback thorax
    thorax lowerneck lclavicle rclavicle
    lowerneck upperneck
    upperneck head
    lclavicle lhumerus
    lhumerus lradius
    lradius lwrist
    lwrist lhand lthumb
    lhand lfingers
    rclavicle rhumerus
    rhumerus rradius
    rradius rwrist
    rwrist rhand rthumb
    rhand rfingers
  end

#!OML:ASF I:\Actors\actors\Patient Classification 1\Patient 1\Session 1\Subject1.ASF
:FULLY-SPECIFIED
:DEGREES
1
root -0.373643 17.5203 7.57087 8.82681 -5.87773 -5.4283
lowerback 1.04381 1.50087 2.67979
upperback -9.8211 2.19814 -0.0764281
thorax -10.949 0.821336 -1.80462
lowerneck -0.948554 -12.6477 -9.2435
upperneck 13.9897 -18.4683 11.2567
head 6.31016 -8.92517 3.68685
rclavicle 1.5704e-014 -1.11319e-014
rhumerus -57.3086 -43.0545 -51.6804
rradius 25.6656
rwrist 46.7656
rhand 1.0521 -32.8412
rfingers 7.12502
rthumb 26.5977 -60.9932
lclavicle 1.5704e-014 -1.11319e-014
lhumerus -54.1855 35.7219 53.3247
lradius 25.3444
lwrist -17.9374
lhand -18.37 -9.11238
lfingers 7.12502
lthumb 7.91319 20.7195
rfemur -4.22358 25.53 21.4644
rtibia 1.87181
rfoot -9.92353 -19.9693
rtoes -3.16415
lfemur 8.33512 -45.4164 -20.8388
ltibia -4.51748
lfoot -30.7493 57.0714
ltoes 20.8685
2
root -0.374866 17.5193 7.5741 8.75315 -5.85639 -5.34714
lowerback 1.11374 1.3747 2.52601
upperback -9.77823 2.03297 0.0911097
thorax -10.9608 0.763856 -1.52396
lowerneck -1.18544 -12.5345 -9.63355
upperneck 14.2412 -18.3078 11.2791
head 6.45115 -8.84888 3.74342
rclavicle -8.94531e-016 -8.74653e-015
rhumerus -56.9081 -42.8177 -51.8019
rradius 25.5451
rwrist 47.0061
rhand 0.997859 -32.8192
rfingers 7.12502
rthumb 26.5458 -60.9791
lclavicle -8.94531e-016 -8.74653e-015
lhumerus -54.7618 36.3187 52.818
lradius 25.3912
lwrist -18.7451
lhand -17.8917 -8.97743
lfingers 7.12502
lthumb 8.37481 20.8365
rfemur -4.10397 25.3965 21.4132
rtibia 1.81267
rfoot -9.83009 -19.8837
rtoes -3.19213
lfemur 8.51746 -45.536 -21.0888
ltibia -4.51063
lfoot -30.5585 57.2178
ltoes 20.479
3
root -0.375004 17.519 7.57745 8.70827 -5.88317 -5.31215
lowerback 1.1303 1.26389 2.43615
upperback -9.72127 1.89119 0.263003
thorax -10.92 0.713245 -1.27466
lowerneck -1.43066 -12.4374 -10.0134
upperneck 14.4546 -18.1636 11.3092
head 6.583 -8.78062 3.80042
rclavicle 2.04748e-014 -2.38542e-015
rhumerus -56.3838 -42.4828 -52.0897
rradius 25.465
rwrist 47.0364
rhand 0.976119 -32.8234
rfingers 7.12502
rthumb 26.525 -60.9865
lclavicle 2.04748e-014 -2.38542e-015
lhumerus -55.2557 36.9204 52.3865
lradius 25.3892
lwrist -19.1418
lhand -17.719 -9.13161
lfingers 7.12502
lthumb 8.54153 20.6756
rfemur -4.02794 25.4083 21.3931
rtibia 1.76743
rfoot -9.81605 -19.8742
rtoes -3.06301
lfemur 8.67935 -45.6748 -21.2694
ltibia -4.51662
lfoot -30.7417 57.3373
ltoes 20.6262
4
root -0.374607 17.5187 7.57966 8.70657 -5.91753 -5.3476
lowerback 1.14496 1.16672 2.43589
upperback -9.65704 1.77392 0.435341
thorax -10.8657 0.666706 -1.07734
lowerneck -1.81204 -12.3743 -10.3017
upperneck 14.7001 -18.0427 11.2303
head 6.73233 -8.71955 3.79919
rclavicle 9.93923e-017 6.36111e-015
rhumerus -55.8373 -42.1751 -52.4204
rradius 25.4238
rwrist 46.9999
rhand 0.946898 -32.8144
rfingers 7.12502
rthumb 26.497 -60.9817
lclavicle 9.93923e-017 6.36111e-015
lhumerus -55.6227 37.4449 52.0988
lradius 25.3822
lwrist -19.2363
lhand -17.695 -9.33101
lfingers 7.12502
lthumb 8.56465 20.4753
rfemur -4.01164 25.4626 21.435
rtibia 1.75944
rfoot -9.86484 -19.8796
rtoes -3.03423
lfemur 8.74668 -45.7456 -21.2956
ltibia -4.51414
lfoot -30.9678 57.3893
ltoes 20.8354
5
root -0.378231 17.5187 7.58614 8.77602 -5.90651 -5.59016
lowerback 1.1606 1.06971 2.61734
upperback -9.63983 1.67464 0.653079
thorax -10.8624 0.614082 -0.93514
lowerneck -2.32143 -12.3361 -10.535
upperneck 15.0564 -17.9423 11.0544
head 6.92784 -8.6647 3.74771
rclavicle -1.15295e-014 -1.82882e-014
rhumerus -55.3984 -41.9465 -52.63
rradius 25.3214
rwrist 46.8353
rhand 0.926329 -32.9488
rfingers 7.12502
rthumb 26.4773 -61.119
lclavicle -1.15295e-014 -1.82882e-014
lhumerus -55.9472 37.9458 51.8574
lradius 25.3716
lwrist -19.1376
lhand -17.9465 -8.83971
lfingers 7.12502
lthumb 8.32195 20.9764
rfemur -3.98527 25.5687 21.7401
rtibia 1.66159
rfoot -9.80012 -20.0019
rtoes -2.68233
lfemur 8.73232 -45.7395 -20.9638
ltibia -4.59108
lfoot -30.8582 57.4577
ltoes 20.6748
6
root -0.383109 17.5192 7.59954 8.89092 -5.87959 -5.98697
lowerback 1.16287 0.851216 2.88442
upperback -9.66293 1.43934 1.12119
thorax -10.9079 0.50008 -0.557989
lowerneck -2.90784 -12.1609 -11.2651
upperneck 15.4825 -17.6253 10.9806
head 7.19054 -8.52256 3.81952
rclavicle -2.07233e-014 -6.36111e-015
rhumerus -54.5577 -41.3065 -52.9829
rradius 25.1097
rwrist 46.5064
rhand 1.03357 -33.3035
rfingers 7.12502
rthumb 26.58 -61.4583
lclavicle -2.07233e-014 -6.36111e-015
lhumerus -57.4451 40.0602 49.9144
lradius 24.8309
lwrist -20.449
lhand -18.4998 -8.28349
lfingers 7.12502
lthumb 7.78793 21.5531
rfemur -3.90702 25.6994 22.2388
rtibia 1.42811
rfoot -9.58137 -20.1697
rtoes -1.88058
lfemur 8.78326 -45.8856 -20.4845
ltibia -4.74735
lfoot -30.8508 57.6988
ltoes 20.4634
7
root -0.38446 17.5196 7.60739 8.94735 -5.88017 -6.16151
lowerback 1.1765 0.86748 3.08474
upperback -9.76335 1.48113 1.14676
thorax -11.0279 0.501335 -0.646818
lowerneck -2.7757 -12.1486 -11.3312
upperneck 15.5063 -17.6273 11.0235
head 7.18562 -8.52985 3.85062
rclavicle 1.23246e-014 1.31198e-014
rhumerus -54.7463 -41.1763 -52.8968
rradius 25.1256
rwrist 46.2325
rhand 1.15945 -33.5095
rfingers 7.12502
rthumb 26.7004 -61.6459
lclavicle 1.23246e-014 1.31198e-014
lhumerus -59.2975 42.4584 46.4336
lradius 23.7017
lwrist -23.659
lhand -18.8093 -8.71224
lfingers 7.12502
lthumb 7.48922 21.1352
rfemur -3.86036 25.7591 22.4512
rtibia 1.29645
rfoot -9.47882 -20.212
rtoes -1.43822
lfemur 8.82848 -46.0291 -20.3126
ltibia -4.79461
lfoot -31.0155 57.8575
ltoes 20.4463
